<svg width="64" height="64" viewBox="0 0 64 64" fill="none" xmlns="http://www.w3.org/2000/svg">
<path d="M1.7002 32C1.7002 45.1 10.1002 56.2 21.7002 60.3V3.7C10.1002 7.8 1.7002 18.9 1.7002 32Z" fill="#75A843"/>
<path d="M61.7002 32C61.7002 18.9 53.3002 7.8 41.7002 3.7V60.3C53.4002 56.2 61.7002 45.1 61.7002 32Z" fill="#ED4C5C"/>
<path d="M21.7002 60.3C24.8002 61.4 28.2002 62 31.7002 62C35.2002 62 38.6002 61.4 41.7002 60.3V3.7C38.6002 2.6 35.2002 2 31.7002 2C28.2002 2 24.8002 2.6 21.7002 3.7V60.3Z" fill="white"/>
</svg>
