<svg width="22" height="17" viewBox="0 0 22 17" fill="none" xmlns="http://www.w3.org/2000/svg">
<path d="M6 15C6.55 15 7 14.55 7 14C7 13.45 6.55 13 6 13C5.45 13 5 13.45 5 14C5 14.55 5.45 15 6 15ZM17 15C17.55 15 18 14.55 18 14C18 13.45 17.55 13 17 13C16.45 13 16 13.45 16 14C16 14.55 16.45 15 17 15ZM1.5 5C1.5 4.45 1.95 4 2.5 4H8.5C9.05 4 9.5 4.44 9.5 5C9.5 5.55 9.05 6 8.5 6H2.5C1.95 6 1.5 5.56 1.5 5ZM3 9C3 8.45 3.45 8 4 8H8.5C9.05 8 9.5 8.44 9.5 9C9.5 9.55 9.05 10 8.5 10H4C3.45 10 3 9.56 3 9ZM17.86 8L17.01 5H12.5V8H17.86ZM17 11C18.31 11 19.42 11.84 19.83 13H20V9.99L12.5 10L12.51 13H14.18C14.58 11.84 15.69 11 17 11ZM6 17C4.34 17 3 15.66 3 14C3 12.34 4.34 11 6 11C7.31 11 8.42 11.84 8.83 13H10.5V2H1C0.45 2 0 1.55 0 1C0 0.45 0.45 0 1 0H11C11.82 0 12.5 0.64 12.5 1.47V3H17.5C18.05 3 18.62 3.43 18.77 3.96L19.93 8H21C21.55 8 22 8.45 22 9V14C22 14.55 21.55 15 21 15H19.83C19.42 16.16 18.31 17 17 17C15.69 17 14.58 16.16 14.17 15H8.83C8.42 16.16 7.31 17 6 17Z" fill="white"/>
</svg>
