<svg width="20" height="22" viewBox="0 0 20 22" fill="none" xmlns="http://www.w3.org/2000/svg">
<path d="M3.52 12.1699C3.04 11.8999 2.87 11.2899 3.14 10.8099C3.41 10.3299 4.02 10.1599 4.5 10.4299L6.99 11.8299C7.47 12.0999 7.64 12.7099 7.37 13.1899C7.1 13.6699 6.49 13.8399 6.01 13.5699L3.52 12.1699ZM0.51 5.12994L9.51 0.129941C9.81 -0.0400586 10.18 -0.0400586 10.48 0.129941L19.48 5.12994C19.8 5.29994 20 5.63994 20 5.99994V15.9999C20 16.3599 19.8 16.6999 19.49 16.8699L10.49 21.8699C10.19 22.0399 9.82 22.0399 9.52 21.8699L0.52 16.8699C0.2 16.6999 0 16.3599 0 15.9999V5.99994C0 5.63994 0.2 5.29994 0.51 5.12994ZM9 11.5899L2 7.69994V15.4199L9 19.2999V11.5899ZM11 19.2999L18 15.3999V7.72994L11 11.5899V19.2999ZM12.44 3.49994L10 2.14994L3.06 5.99994L5.57 7.39994L12.44 3.49994ZM7.62 8.52994L10.01 9.85994L16.97 6.01994L14.49 4.63994L7.62 8.52994Z" fill="white"/>
</svg>
