<svg width="22" height="16" viewBox="0 0 22 16" fill="none" xmlns="http://www.w3.org/2000/svg">
<path d="M7 8C7 9.1 7.9 10 9 10C10.1 10 11 9.1 11 8C11 6.9 10.1 6 9 6C7.9 6 7 6.9 7 8ZM2 2V14H20V2H2ZM0 2C0 0.9 0.9 0 2 0H20C21.1 0 22 0.89 22 2V14C22 15.11 21.1 16 20 16H2C0.9 16 0 15.11 0 14V2ZM12.5 6.06C12.82 6.64 13 7.3 13 8C13 8.7 12.82 9.36 12.5 9.94C12.66 9.98 12.83 10 13 10C14.1 10 15 9.1 15 8C15 6.9 14.1 6 13 6C12.83 6 12.66 6.02 12.5 6.06ZM11 11.47C10.41 11.8 9.73 12 9 12C6.79 12 5 10.21 5 8C5 5.79 6.79 4 9 4C9.73 4 10.41 4.2 11 4.53C11.59 4.2 12.27 4 13 4C15.21 4 17 5.79 17 8C17 10.21 15.21 12 13 12C12.27 12 11.59 11.8 11 11.47Z" fill="white"/>
</svg>
