<svg width="250" height="78" viewBox="0 0 250 78" fill="none" xmlns="http://www.w3.org/2000/svg">
<path d="M83.9867 17.8988H83.3895C73.7 18.3866 68.8491 23.4233 68.8491 33.0209V52.9479H79.3796V33.0209C79.3796 29.3989 80.7203 27.5331 83.3895 27.4233H83.9867C86.6681 27.5331 87.9966 29.3989 87.9966 33.0209V52.9479H98.5271V33.0209C98.5393 23.4233 93.6884 18.3866 83.9867 17.8988Z" fill="black"/>
<path d="M136.444 19.2525H124.097L113.201 32.0331H113.067V6.21584L102.537 6.25242V52.9357H113.067V36.4112L125.45 52.9357H138.577L124.256 33.7038L136.444 19.2525Z" fill="black"/>
<path d="M167.243 22.9111C165.403 21.2403 163.331 19.9964 161.027 19.155C158.663 18.2769 156.225 17.8379 153.726 17.8379C151.252 17.8379 148.827 18.2769 146.45 19.155C144.122 20.033 142.05 21.3013 140.234 22.9477C138.43 24.5696 137.017 26.4965 135.993 28.716C134.957 30.9355 134.445 33.3258 134.445 35.899C134.445 39.3258 135.335 42.4234 137.114 45.1795C138.869 47.9235 141.234 50.082 144.22 51.6674C147.206 53.2528 150.375 54.0333 153.726 54.0333C156.298 54.0333 158.723 53.582 161.027 52.6796C163.306 51.8259 165.378 50.5576 167.243 48.8869C169.083 47.1917 170.509 45.2527 171.521 43.0576C172.533 40.8868 173.032 38.4966 173.032 35.8746C173.032 33.3014 172.52 30.9111 171.484 28.6916C170.473 26.5087 169.059 24.5818 167.243 22.9111ZM159.906 41.9356C158.175 43.6307 156.115 44.4722 153.714 44.4722C151.35 44.4722 149.29 43.6307 147.559 41.9356C145.804 40.2405 144.927 38.2283 144.927 35.8746C144.927 34.338 145.329 32.9233 146.145 31.6307C146.962 30.338 148.047 29.3014 149.4 28.5331C150.765 27.7648 152.203 27.3745 153.714 27.3745C155.274 27.3745 156.725 27.7648 158.053 28.5331C159.418 29.3014 160.503 30.338 161.307 31.6307C162.124 32.9233 162.526 34.338 162.526 35.8746C162.538 38.2283 161.661 40.2527 159.906 41.9356Z" fill="black"/>
<path d="M223.394 22.9111C221.553 21.2403 219.481 19.9964 217.178 19.155C214.813 18.2769 212.376 17.8379 209.877 17.8379C207.403 17.8379 204.978 18.2769 202.601 19.155C200.273 20.033 198.201 21.3013 196.385 22.9477C194.581 24.5696 193.167 26.4965 192.144 28.716C191.108 30.9355 190.596 33.3258 190.596 35.899C190.596 39.3258 191.485 42.4234 193.265 45.1795C195.02 47.9235 197.384 50.082 200.371 51.6674C203.357 53.2528 206.525 54.0333 209.877 54.0333C212.449 54.0333 214.874 53.582 217.178 52.6796C219.457 51.8259 221.529 50.5576 223.394 48.8869C225.234 47.1917 226.66 45.2527 227.672 43.0576C228.683 40.8868 229.183 38.4966 229.183 35.8746C229.183 33.3014 228.671 30.9111 227.635 28.6916C226.636 26.5087 225.222 24.5818 223.394 22.9111ZM216.057 41.9356C214.326 43.6307 212.254 44.4722 209.865 44.4722C207.501 44.4722 205.441 43.6307 203.71 41.9356C201.955 40.2405 201.077 38.2283 201.077 35.8746C201.077 34.338 201.48 32.9233 202.296 31.6307C203.113 30.338 204.198 29.3014 205.55 28.5331C206.916 27.7648 208.342 27.3745 209.865 27.3745C211.425 27.3745 212.875 27.7648 214.204 28.5331C215.569 29.3014 216.654 30.338 217.458 31.6307C218.275 32.9233 218.677 34.338 218.677 35.8746C218.689 38.2283 217.812 40.2527 216.057 41.9356Z" fill="black"/>
<path d="M247.855 17.8745H247.258C237.556 18.3623 232.717 23.3989 232.717 32.9843V52.9357H243.248V32.9843C243.248 29.3624 244.588 27.4965 247.258 27.3867H247.855C248.732 27.4355 249.452 27.6428 250 28.0087V18.0696C249.293 17.9598 248.574 17.8867 247.855 17.8745Z" fill="black"/>
<path d="M64.8508 6.25441H53.394V52.9498H64.8508V6.25441Z" fill="black"/>
<path d="M187.073 6.21584H176.579V52.9479H187.073V6.21584Z" fill="black"/>
<path d="M34.8604 29.5124C29.1564 15.0977 7.35196 6.20737 7.35196 6.20737C7.35196 6.20737 -3.64167 27.049 1.25793 41.7442C1.31887 41.9271 1.37981 42.1101 1.44075 42.293C4.82903 51.5857 15.0914 56.3663 24.3787 52.9882C33.666 49.6101 38.4437 39.3417 35.0676 30.049C34.9945 29.8661 34.9336 29.6953 34.8604 29.5124Z" fill="#00AEEF"/>
<path d="M43.8427 41.7442C48.7423 27.0368 37.7487 6.20737 37.7487 6.20737C37.7487 6.20737 15.9321 15.0977 10.2402 29.5124C10.1671 29.6953 10.094 29.8661 10.033 30.049C6.65694 39.3417 11.4469 49.6101 20.722 52.9882C30.0093 56.3663 40.2716 51.5857 43.6477 42.293C43.7209 42.1101 43.7818 41.9271 43.8427 41.7442Z" fill="#FFD400"/>
<path d="M40.4302 31.3051C40.0036 15.8172 22.5503 0 22.5503 0C22.5503 0 5.09697 15.8172 4.67039 31.3051C4.67039 31.5002 4.6582 31.6831 4.6582 31.8783C4.6582 41.7564 12.6658 49.7808 22.5503 49.7808C32.4348 49.7808 40.4424 41.7686 40.4424 31.8783C40.4302 31.6953 40.4302 31.5002 40.4302 31.3051Z" fill="#EC008C"/>
<path d="M40.4302 31.3051C40.2108 23.4026 35.5672 15.4147 31.0698 9.48785C28.5225 10.8903 25.512 12.7318 22.5625 14.9513C27.6327 18.7562 32.5689 23.6709 34.8724 29.5002C34.9456 29.6831 35.0187 29.8538 35.0796 30.0368C37.1638 35.7685 36.14 41.8661 32.8736 46.4881C37.4563 43.2442 40.4546 37.9027 40.4546 31.8661C40.4302 31.6953 40.4302 31.5002 40.4302 31.3051Z" fill="#ED1C24"/>
<path d="M22.5504 49.7808C18.7111 49.7808 15.1644 48.5735 12.2515 46.5247C14.2869 49.3906 17.1754 51.6955 20.7222 52.9882C21.3316 53.2077 21.9288 53.3906 22.5504 53.5492C23.1598 53.4028 23.7692 53.2077 24.3786 52.9882C27.9253 51.6955 30.8261 49.3906 32.8493 46.5247C29.9364 48.5735 26.3774 49.7808 22.5504 49.7808Z" fill="#00954D"/>
<path d="M10.0336 30.049C10.0946 29.8661 10.1677 29.6953 10.2408 29.5124C12.5444 23.6831 17.4806 18.7562 22.5508 14.9635C19.5891 12.744 16.5908 10.9025 14.0435 9.50008C9.54613 15.4269 4.90247 23.4148 4.68309 31.3173C4.68309 31.5124 4.6709 31.6954 4.6709 31.8905C4.6709 37.9271 7.66916 43.2686 12.2519 46.5125C8.97329 41.8784 7.94949 35.7808 10.0336 30.049Z" fill="#2E3192"/>
<path d="M22.5507 49.7808C26.3899 49.7808 29.9366 48.5735 32.8496 46.5125C36.116 41.8783 37.152 35.7807 35.0556 30.049C34.9947 29.8661 34.9216 29.6953 34.8484 29.5124C32.5449 23.6831 27.6087 18.7562 22.5385 14.9635C17.4683 18.7684 12.5321 23.6831 10.2285 29.5124C10.1554 29.6953 10.0823 29.8661 10.0213 30.049C7.93718 35.7807 8.96098 41.8905 12.2274 46.5125C15.1525 48.5735 18.7114 49.7808 22.5507 49.7808Z" fill="black"/>
<path d="M55.991 71.156C58.149 71.156 59.436 70.012 59.436 68.309C59.436 67.035 58.695 66.229 57.213 65.865L55.614 65.488C54.574 65.241 54.223 64.89 54.223 64.37C54.223 63.72 54.808 63.226 55.887 63.226C56.693 63.226 57.473 63.512 58.175 64.162L59.241 63.018C58.383 62.186 57.174 61.744 55.913 61.744C53.885 61.744 52.572 62.888 52.572 64.474C52.572 65.683 53.365 66.515 54.808 66.866L56.407 67.243C57.395 67.477 57.772 67.867 57.772 68.426C57.772 69.141 57.148 69.661 56.043 69.661C55.185 69.661 54.275 69.349 53.352 68.66L52.403 69.947C53.365 70.727 54.652 71.156 55.991 71.156ZM61.4447 63.46C61.9907 63.46 62.4327 63.018 62.4327 62.459C62.4327 61.926 61.9907 61.471 61.4447 61.471C60.8857 61.471 60.4307 61.926 60.4307 62.459C60.4307 63.018 60.8857 63.46 61.4447 63.46ZM60.6517 71H62.2117V64.344H60.6517V71ZM67.5374 64.188C66.7834 64.188 66.0554 64.448 65.5094 64.903V64.344H63.9494V71H65.5094V66.411C65.9774 65.865 66.5754 65.631 67.1474 65.631C68.0184 65.631 68.5644 66.203 68.5644 67.347V71H70.1244V67.009C70.1244 65.215 69.0714 64.188 67.5374 64.188ZM74.9118 71.156C76.1728 71.156 77.2778 70.584 77.9278 69.596L76.7708 68.725C76.3028 69.362 75.6528 69.726 74.9378 69.726C73.8718 69.726 73.0008 68.92 73.0008 67.672C73.0008 66.463 73.8328 65.631 74.9248 65.631C75.5618 65.631 76.1468 65.917 76.6278 66.58L77.8498 65.618C77.1868 64.695 76.1208 64.188 74.9378 64.188C72.9488 64.188 71.4018 65.657 71.4018 67.711C71.4018 69.726 72.8968 71.156 74.9118 71.156ZM85.4991 67.477C85.4991 65.462 84.1341 64.188 82.1971 64.188C80.1171 64.188 78.6351 65.67 78.6351 67.724C78.6351 69.752 80.0521 71.156 82.2101 71.156C83.5101 71.156 84.5891 70.649 85.2911 69.7L84.1991 68.868C83.6531 69.531 83.0031 69.817 82.2361 69.817C81.0921 69.817 80.3251 69.193 80.1951 68.062H85.4601C85.4861 67.867 85.4991 67.685 85.4991 67.477ZM82.1841 65.501C83.1201 65.501 83.7571 65.956 83.9261 66.892H80.2731C80.5201 65.995 81.2091 65.501 82.1841 65.501ZM91.8486 69.518L94.2406 67.282C95.4496 66.151 95.8136 65.293 95.8136 64.396C95.8136 62.836 94.6436 61.744 92.8626 61.744C91.3806 61.744 90.1196 62.485 89.3656 63.902L90.6266 64.76C91.2246 63.72 92.0046 63.226 92.8236 63.226C93.6426 63.226 94.1886 63.694 94.1886 64.461C94.1886 65.046 93.8636 65.644 92.7196 66.723L89.5086 69.713V71H95.9566V69.518H91.8486ZM100.807 71.156C103.108 71.156 104.551 69.44 104.551 66.45C104.551 63.46 103.108 61.744 100.807 61.744C98.5059 61.744 97.0629 63.46 97.0629 66.45C97.0629 69.44 98.5059 71.156 100.807 71.156ZM100.807 69.674C99.4809 69.674 98.7139 68.673 98.7139 66.45C98.7139 64.227 99.4809 63.226 100.807 63.226C102.133 63.226 102.913 64.227 102.913 66.45C102.913 68.673 102.133 69.674 100.807 69.674ZM109.513 71.156C111.814 71.156 113.257 69.44 113.257 66.45C113.257 63.46 111.814 61.744 109.513 61.744C107.212 61.744 105.769 63.46 105.769 66.45C105.769 69.44 107.212 71.156 109.513 71.156ZM109.513 69.674C108.187 69.674 107.42 68.673 107.42 66.45C107.42 64.227 108.187 63.226 109.513 63.226C110.839 63.226 111.619 64.227 111.619 66.45C111.619 68.673 110.839 69.674 109.513 69.674ZM113.946 61.9V63.382H118.444L114.778 71H116.559L120.251 63.2V61.9H113.946Z" fill="black"/>
</svg>
