<svg width="64" height="64" viewBox="0 0 64 64" fill="none" xmlns="http://www.w3.org/2000/svg">
<path d="M22.0002 60.3V46.5L11.7002 54.1C14.6002 56.8 18.1002 58.9 22.0002 60.3Z" fill="#2A5F9E"/>
<path d="M42 60.3C45.9 58.9 49.4 56.8 52.3 54.1L42 46.4V60.3Z" fill="#2A5F9E"/>
<path d="M3.7002 42C4.0002 43 4.4002 43.9 4.9002 44.9L8.8002 42H3.7002Z" fill="#2A5F9E"/>
<path d="M55.2002 42L59.1002 44.9C59.5002 44 59.9002 43 60.3002 42H55.2002Z" fill="#2A5F9E"/>
<path d="M23.5001 38H2.6001C2.9001 39.4 3.3001 40.7 3.7001 42H8.8001L4.9001 44.9C5.7001 46.6 6.6001 48.1 7.7001 49.6L18.0001 42H22.0001V44L10.3001 52.6L11.7001 54L22.0001 46.5V60.3C23.3001 60.8 24.6001 61.1 26.0001 61.4V38H23.5001Z" fill="white"/>
<path d="M61.4 38H38V61.4C39.4 61.1 40.7 60.7 42 60.3V46.5L52.3 54C53.7 52.7 54.9 51.3 56.1 49.8L45.4 42H52.2L58.3 46.5C58.6 46 58.9 45.4 59.1 44.9L55.2 42H60.3C60.7 40.7 61.1 39.4 61.4 38Z" fill="white"/>
<path d="M7.7002 49.6C8.5002 50.7 9.3002 51.7 10.2002 52.7L22.0002 44.1V42.1H18.0002L7.7002 49.6Z" fill="#ED4C5C"/>
<path d="M45.5 42L56.2 49.8C56.6 49.3 56.9 48.8 57.3 48.3C57.4 48.2 57.4 48.1 57.5 48.1C57.8 47.6 58.2 47 58.5 46.5L52.2 42H45.5Z" fill="#ED4C5C"/>
<path d="M42 3.7V17.5L52.3 9.9C49.4 7.2 45.9 5.1 42 3.7Z" fill="#2A5F9E"/>
<path d="M22.0002 3.7C18.1002 5.1 14.6002 7.2 11.7002 9.9L22.0002 17.6V3.7Z" fill="#2A5F9E"/>
<path d="M60.3002 22C60.0002 21 59.6002 20.1 59.1002 19.1L55.2002 22H60.3002Z" fill="#2A5F9E"/>
<path d="M8.8002 22L4.9002 19.1C4.5002 20.1 4.1002 21 3.7002 22H8.8002Z" fill="#2A5F9E"/>
<path d="M40.5 26H61.3C61 24.6 60.6 23.3 60.2 22H55.1L59 19.1C58.2 17.4 57.3 15.9 56.2 14.4L46 22H42V20L53.7 11.4L52.3 10L42 17.5V3.70001C40.7 3.20001 39.4 2.90001 38 2.60001V26H40.5Z" fill="white"/>
<path d="M2.6001 26H26.0001V2.60001C24.6001 2.90001 23.3001 3.30001 22.0001 3.70001V17.5L11.7001 10C10.3001 11.3 9.1001 12.7 7.9001 14.2L18.6001 22H11.8001L5.7001 17.5C5.4001 18 5.1001 18.6 4.9001 19.1L8.8001 22H3.7001C3.3001 23.3 2.9001 24.6 2.6001 26Z" fill="white"/>
<path d="M56.3 14.4C55.5 13.3 54.7 12.3 53.8 11.3L42 19.9V21.9H46L56.3 14.4Z" fill="#ED4C5C"/>
<path d="M18.5001 22L7.9001 14.2C7.5001 14.7 7.2001 15.2 6.8001 15.7C6.7001 15.8 6.7001 15.9 6.6001 15.9C6.3001 16.4 5.9001 17 5.6001 17.5L11.7001 22H18.5001Z" fill="#ED4C5C"/>
<path d="M61.4 26H38V2.6C36.1 2.2 34.1 2 32 2C29.9 2 27.9 2.2 26 2.6V26H2.6C2.2 27.9 2 29.9 2 32C2 34.1 2.2 36.1 2.6 38H26V61.4C27.9 61.8 29.9 62 32 62C34.1 62 36.1 61.8 38 61.4V38H61.4C61.8 36.1 62 34.1 62 32C62 29.9 61.8 27.9 61.4 26Z" fill="#ED4C5C"/>
</svg>
